<svg xmlns="http://www.w3.org/2000/svg" width="256" height="256"><path fill="#1976D2" fill-opacity=".016" fill-rule="evenodd" d="M0 128.004v128.004l128.25-.254 128.25-.254.254-127.75L257.008 0H0v128.004m.485.496c0 70.4.119 99.053.265 63.672.146-35.38.146-92.98 0-128C.604 29.153.485 58.1.485 128.5"/><path fill="#1976D2" fill-opacity=".295" fill-rule="evenodd" d="M61.112 1.581c-7.506 2.018-16.54 7.041-21.722 12.078C29.484 23.287 25 34.469 25 49.546c0 5.708-.427 9.6-1.099 10.015-.792.489-.934 19.779-.509 68.809.325 37.472.835 69.48 1.134 71.13 2.178 12.043 7.366 21.935 15.341 29.25 5.094 4.673 14.675 9.847 20.133 10.873 1.925.363 4.216 1.023 5.092 1.468 4.542 2.311 14.283 2.727 67.338 2.876 45.98.129 46.982.063 62.57-4.1 10.277-2.745 15.471-5.52 20.89-11.159 8.185-8.519 12.705-18.535 13.589-30.107.298-3.906.761-8.901 1.028-11.101.365-3 .25-3.5-.46-2-.635 1.343-.716.028-.246-4 .384-3.3.693-36.15.686-73-.013-66.451-.032-67.058-2.239-74.12-5.181-16.569-17.597-28.565-33.952-32.803C185.612-.674 69.481-.67 61.112 1.581M57 25.288c-3.177 1.598-3.956 6.998-1.415 9.806 3.591 3.968 10.434 1.223 10.4-4.173-.019-2.981-.849-4.287-3.669-5.771-2.639-1.389-2.262-1.399-5.316.138m17.75 1.374c.688.278 1.25 2.042 1.25 3.921S76.45 34 77 34s1-1.538 1-3.417c0-1.879.563-3.643 1.25-3.921.688-.277-.325-.504-2.25-.504s-2.937.227-2.25.504M95 30.274c0 1.985.377 3.841.838 4.126 1.013.626.901-5.994-.119-7.014-.395-.396-.719.904-.719 2.888m96.035-1.34c-1.339 2.502-1.323 2.635.536 4.495 2.026 2.025 7.832 2.025 9.858 0 1.859-1.86 1.875-1.993.536-4.495-1.478-2.761-9.452-2.761-10.93 0m-110.02.746c.013 1.529.166 1.582.959.328 1.167-1.846 2.66-.511 3.346 2.992.324 1.656.437 1.318.335-1-.125-2.811-.598-3.563-2.405-3.82-1.63-.231-2.246.182-2.235 1.5m7.33-.625c-1.331 1.331-.651 4.613 1.094 5.283.683.262 1.877.026 2.652-.525 1.123-.799 1.061-.89-.309-.451-.945.303-1.984.12-2.309-.406-.325-.526.369-.956 1.541-.956 1.487 0 2.031-.526 1.798-1.739-.401-2.081-2.914-2.759-4.467-1.206M89 30c0 .55.702 1 1.559 1s1.281-.45.941-1c-.34-.55-1.041-1-1.559-1S89 29.45 89 30m28.75 22.662c.688.278 1.813.278 2.5 0 .688-.277.125-.504-1.25-.504s-1.937.227-1.25.504m17 0c.688.278 1.813.278 2.5 0 .688-.277.125-.504-1.25-.504s-1.937.227-1.25.504m-21.937 1.021c.721.289 1.584.253 1.916-.079.332-.332-.258-.568-1.312-.525-1.165.048-1.402.285-.604.604m28 0c.721.289 1.584.253 1.916-.079.332-.332-.258-.568-1.312-.525-1.165.048-1.402.285-.604.604m-32 1c.721.289 1.584.253 1.916-.079.332-.332-.258-.568-1.312-.525-1.165.048-1.402.285-.604.604m63.687 4.472c-3.067 1.677-4.5 3.942-4.5 7.113 0 3.742 4.857 8.732 8.5 8.732 3.508 0 8.5-4.992 8.5-8.5 0-3.333-4.997-8.511-8.173-8.47-1.28.017-3.227.523-4.327 1.125M113 66.829c-5.584 1.856-12 4.875-12 5.646 0 .232 1.688-.296 3.75-1.175 2.74-1.168 7.926-1.693 19.25-1.951 8.525-.194 16.088-.573 16.806-.841.718-.269 2.925.188 4.903 1.015 1.979.827 3.765 1.337 3.968 1.133.204-.203-2.003-1.403-4.903-2.666-7.356-3.203-23.82-3.805-31.774-1.161M94.405 77.25 92.5 79.5l2.25-1.905c1.237-1.048 2.25-2.06 2.25-2.25 0-.8-.805-.209-2.595 1.905M129 107.002l-17.5 16.916-2.5-2.858c-3.804-4.349-6.496-5.409-9.769-3.848-2.095.999-2.8 2.125-3.029 4.835-.271 3.211.334 4.142 6.653 10.243 4.463 4.308 7.771 6.71 9.243 6.71C115.215 139 156 98.529 156 95.436c0-2.926-3.072-5.445-6.579-5.393-2.399.035-6.049 3.066-20.421 16.959m59.455 71.453c-5.282 5.281-1.752 13.545 5.787 13.545 7.099 0 10.629-9.597 5.123-13.927-3.566-2.806-7.874-2.655-10.91.382M24.195 179.5c.02 1.65.244 2.204.498 1.231.254-.973.237-2.323-.037-3-.274-.677-.481.119-.461 1.769m169.978 3.007c-1.254 1.594-2.555 2.284-3.573 1.893-2.041-.783-2.051.445-.021 2.687 1.484 1.64 1.783 1.519 5-2.042 1.881-2.083 3.421-4.07 3.421-4.416 0-1.572-3.045-.387-4.827 1.878"/><path fill="#1976D2" fill-opacity=".723" fill-rule="evenodd" d="M66.547 1.037C46.916 3.401 29.497 19.741 25.928 39.14c-1.512 8.219-2.208 76.527-1.144 112.36.844 28.459 1.181 32.647 3.042 37.848 3.65 10.203 7.1 14.693 21.553 28.047 5.414 5.003 13.732 8.82 22.05 10.12 4.538.709 25.877 1.084 59.571 1.045l52.5-.06 7.864-2.43c6.053-1.87 9.034-3.481 12.946-7 11.053-9.939 16.335-15.832 19.418-21.663 6.225-11.772 6.241-11.993 6.257-86.108.01-45.876-.341-68.882-1.106-72.5-3.569-16.871-14.871-29.804-31.46-36.002C191.581.616 190.693.583 132.5.392c-32.45-.106-62.129.184-65.953.645M55 26c-4.089 4.089-1.346 11 4.366 11 6.415 0 9.405-5.479 5.618-10.293C62.392 23.411 57.906 23.094 55 26m121-1.306C169.746 26.929 171.283 36 177.916 36c5.807 0 8.009-6.34 3.449-9.927-2.773-2.181-2.975-2.233-5.365-1.379M73 26c0 .55.675 1 1.5 1 1.083 0 1.5 1.111 1.5 4 0 2.2.45 4 1 4s1-1.8 1-4c0-2.889.417-4 1.5-4 .825 0 1.5-.45 1.5-1s-1.8-1-4-1-4 .45-4 1m21.739 1.25c-.814 2.143.426 7.75 1.714 7.75 1.044 0 1.317-3.462.651-8.25-.169-1.214-1.849-.858-2.365.5m99.013-.552c-3.173.502-4.743 4.403-2.741 6.815 1.495 1.801 9.073 2.003 10.789.287 1.352-1.352 1.536-3.723.425-5.471-.924-1.452-4.835-2.205-8.473-1.631M80 31.5c0 1.925.45 3.5 1 3.5s1-1.125 1-2.5.45-2.5 1-2.5 1 .873 1 1.941.45 2.219 1 2.559c.595.368 1-.823 1-2.941C86 28.271 85.771 28 83 28c-2.762 0-3 .278-3 3.5m7.709-2.876c-2.358 2.358.923 7.148 4.028 5.881 1.627-.664 1.608-.783-.237-1.542-1.797-.739-1.815-.83-.177-.893 2.517-.097 1.75-3.485-.874-3.862-1.117-.161-2.35.027-2.74.416m24.69 24.348c-40.976 10.744-60.14 53.281-40.684 90.306 15.16 28.849 54.108 41.277 83.562 26.663 30.383-15.074 43.813-51.318 30.052-81.108l-2.617-5.666-5.155.046c-10.842.098-18.072-7.463-17.394-18.19.284-4.508.268-4.532-4.858-7.293-11.942-6.432-29.215-8.348-42.906-4.758m58.236 7.101c-3.611 2.84-3.699 8.954-.18 12.472C175.847 77.938 185 74.134 185 66.5c0-7.37-8.393-11.125-14.365-6.427m-50.135 2.99c-11.437 1.355-19.941 5.559-29.516 14.591-33.425 31.531-9.768 87.408 36.976 87.334 8.623-.013 15.365-1.579 22.54-5.234 12.212-6.221 22.07-17.65 26.525-30.754 4.608-13.554 1.719-36.198-5.252-41.162-3.28-2.335-3.51-1.759-.779 1.952 6.057 8.229 7.912 25.833 4.042 38.355-7.174 23.211-31.567 38.058-55.735 33.923-18.525-3.169-33.335-15.628-39.372-33.122-3.025-8.765-3.034-22.868-.02-31.365 4.246-11.97 12.297-21.214 23.829-27.361 16.696-8.899 35.58-7.829 51.512 2.917 6.848 4.619 7.712 3.453 1.153-1.556-5.33-4.069-13.699-7.438-20.293-8.168-2.535-.281-5.735-.634-7.11-.785-1.375-.152-5.2.045-8.5.435m-4 14.282c-11.336 3.757-19.41 10.545-23.945 20.13-3.709 7.84-5.663 25.981-3.326 30.875 2.247 4.703 8.38 11.671 13.997 15.903 10.8 8.135 27.887 10.046 40.046 4.48 7.506-3.436 16.008-11.567 19.473-18.624 2.508-5.106 2.752-6.596 2.725-16.609-.034-12.962-1.663-17.585-8.935-25.36-6.801-7.27-16.537-11.453-27.535-11.83-5.165-.177-10.07.229-12.5 1.035m30 12.804c-1.1.599-9.284 8.314-18.186 17.144l-16.185 16.056-4.068-3.675c-2.328-2.103-5.103-3.674-6.491-3.674-2.738 0-6.57 4.198-6.57 7.197 0 1.06 3.055 5.05 6.788 8.865 10.494 10.726 9.344 11.176 33.906-13.28C153.726 100.828 156 98.203 156 95.339c0-5.061-4.859-7.715-9.5-5.19m42.325 86.889c-.921.538-2.185 2.521-2.807 4.408-3.36 10.181 11.452 15.853 15.583 5.967 1.597-3.821.325-8.847-2.64-10.434-2.328-1.246-7.956-1.213-10.136.059m6.203 5.432c-1.338 1.424-3.002 2.37-3.698 2.103-1.95-.748-2.498 1.043-.76 2.485 1.304 1.083 2.031.803 4.609-1.776 1.684-1.683 2.886-3.587 2.671-4.231-.234-.702-1.363-.134-2.822 1.419"/><path fill="#1976D2" fill-opacity=".571" fill-rule="evenodd" d="M112.645 2.689c-.104.103-12.477.28-27.496.392-15.019.112-26.779.53-26.133.929.736.455.189.973-1.467 1.388-1.453.365-3.14.355-3.749-.022-.722-.446-.823-.222-.29.639.599.97.358 1.149-.898.666-.944-.362-1.47-.26-1.17.226.301.486-.149 1.15-1 1.477-.992.381-1.295.188-.846-.539 1.705-2.758-6.261 3.19-11.214 8.374-5.574 5.833-11.076 15.85-9.821 17.88.382.618.097 1.494-.634 1.946-1.006.622-1.271 3.64-1.09 12.388C27.041 58.28 26.848 60 25.538 60 24.181 60 24 64.513 24 98.441c0 22.677.382 38.677.932 39.017.513.317 1.12-.669 1.35-2.191.23-1.522.486 7.826.568 20.773.112 17.519.542 25.045 1.683 29.425 4.263 16.366 16.413 28.901 33.382 34.441C68.138 221.937 70.138 222 128.5 222c58.258 0 60.371-.066 66.51-2.082 15.741-5.167 27.368-16.843 32.282-32.418 2.189-6.94 2.208-7.593 2.208-76.5 0-69.189-.01-69.532-2.239-76.62-2.608-8.291-8.8-18.064-14.068-22.204-4.642-3.648-9.746-6.29-10.566-5.469-.345.344-.627.075-.627-.599 0-.674-.45-.948-1-.608-.55.34-1 .093-1-.548 0-.66-.697-.898-1.607-.549-.884.339-3.435.124-5.67-.478-3.277-.882-79.259-2.056-80.078-1.236M59 8.722c-6.254 2.174-14.397 7.728-18.001 12.28-1.667 2.104-4.261 6.452-5.765 9.662L32.5 36.5 32.353 67c-.086 18.015.17 28.115.626 24.674.845-6.367 2.492-9.148 3.986-6.73.716 1.157 1.17 1.189 2.399.169 2.055-1.706 9.136-.981 9.136.935 0 2.028 1.701 3.03 3.13 1.844.658-.546 2.434-1.217 3.947-1.492 2.299-.417 2.555-.264 1.561.934-.946 1.14-.832 1.569.558 2.103 1.494.573 1.534.806.276 1.601-.873.552-.993.938-.295.947.647.008 2.303-2.446 3.68-5.453 16.859-36.825 61.636-52.953 97.677-35.182l6.534 3.222 3.274-1.912c5.752-3.359 13.526-2.248 19.003 2.715 4.714 4.271 5.478 7.184 4.768 18.168-.615 9.507-.496 10.47 1.939 15.791 1.427 3.116 2.69 5.666 2.807 5.666.812 0-.006-4.006-.823-4.03-.57-.017-.205-.514.81-1.104 1.324-.769 2.159-.761 2.95.03 1.545 1.545 2.704 1.375 2.704-.396 0-.825.848-1.5 1.883-1.5 1.036 0 2.11-.866 2.387-1.925.353-1.351.09-1.767-.883-1.393-.763.293-1.387-.002-1.387-.654 0-.798.982-.971 3-.528 3.96.87 9-.295 9-2.079 0-1.769 2.393-1.857 3.818-.141.584.704 1.231 3.742 1.437 6.75.206 3.009.458-6.302.56-20.691.164-23.197-.03-26.85-1.71-32.248-3.899-12.53-12.79-22.023-24.47-26.128-5.335-1.875-8.437-1.959-69.36-1.884C72.149 7.147 62.89 7.37 59 8.722m53 43.794c-12.072 2.961-22.898 9.45-32.16 19.275C69.072 83.215 63.729 97.069 63.756 113.5c.028 17.934 5.713 31.12 19.185 44.502 13.555 13.465 25.721 18.436 45.059 18.409 9.933-.013 12.59-.392 19.5-2.776 20.339-7.019 36.368-24.069 41.503-44.146 3.588-14.031 2.453-28.501-3.197-40.76-3.139-6.81-3.208-6.876-6.475-6.263-10.444 1.959-20.513-8.02-18.784-18.618l.596-3.652-6.322-3.077c-3.476-1.691-9.003-3.76-12.281-4.597-7.289-1.861-22.966-1.864-30.54-.006m60.421 5.88c-1.728.765-3.618 2.665-4.308 4.33-3.774 9.112 7.671 16.945 14.614 10.001 7.095-7.094-1.055-18.427-10.306-14.331M119.5 63.5c.55.189 5.5.529 11 .757 5.5.228 8.875.083 7.5-.322-2.405-.708-20.542-1.134-18.5-.435m-3.687 1.183c.721.289 1.584.253 1.916-.079.332-.332-.258-.568-1.312-.525-1.165.048-1.402.285-.604.604m-11.549 3.821C86.607 77.338 76 94.195 76 113.424c0 14.436 4.551 25.338 14.89 35.666 25.32 25.293 66.577 18.685 82.539-13.222 1.883-3.763 3.963-9.436 4.622-12.605 2.306-11.1-.491-28.942-5.293-33.763-2.187-2.196-2.184-2.181 1.196 4.991 1.294 2.745 2.819 8.225 3.388 12.178 3.053 21.193-8.118 41.672-28.146 51.597l-8.545 4.234h-13.076c-12.721 0-13.264-.09-20.053-3.304-13.697-6.486-23.301-16.523-27.729-28.98-2.856-8.034-3.477-21.01-1.394-29.133 3.822-14.906 15.044-27.377 30.268-33.637 3.208-1.319 5.106-2.409 4.217-2.422-.888-.013-4.767 1.553-8.62 3.48m42.671-.51c3.539 1.678 8.039 4.248 10 5.713 3.143 2.347 3.328 2.391 1.565.368-2.069-2.373-11.113-7.317-15.5-8.473-1.375-.362.396.714 3.935 2.392m-27.528 9.037c-6.957 1.379-13.666 5.141-19.494 10.932-6.784 6.74-9.263 12.719-10.876 26.229-1.343 11.249-.597 13.973 5.98 21.829 8.09 9.662 20.072 15.309 32.483 15.309 27.681 0 45.391-26.532 35.303-52.892-5.798-15.152-25.622-24.931-43.396-21.407M37 81.059c0 .582.45.781 1 .441s1-.816 1-1.059S38.55 80 38 80s-1 .477-1 1.059m91 4.396c0 .85.525 1.545 1.167 1.545.641 0 .88.286.531.635-.35.35-1.759-.1-3.132-1-1.372-.899-3.749-1.594-5.281-1.545-2.665.086-2.637.133.65 1.077 2.614.75 3.092 1.203 2 1.894-.789.5-2.209.915-3.155.924-2.46.022-8.735 3.679-12.53 7.303-3.753 3.585-4.053 4.648-1.25 4.437 1.1-.083 2-.505 2-.938 0-.433 2.138-.72 4.75-.637 3.36.106 3.872.275 1.75.577-4.421.629-5.287 2.105-1.119 1.909 3.833-.181 5.198 1.264 3.291 3.484-.645.751.274.062 2.042-1.531 1.768-1.592 2.936-3.346 2.596-3.897-.34-.55-.143-.707.439-.347.582.359 3.914-2.087 7.404-5.437 3.491-3.35 5.634-5.868 4.764-5.595-.954.299-1.584-.091-1.584-.981 0-.98.667-1.304 1.978-.961 1.087.284 1.575.147 1.083-.306-.492-.452-2.581-1.122-4.644-1.489-3.003-.534-3.75-.359-3.75.879m4.175 17.786c-8.071 7.908-16.014 15.584-17.651 17.056l-2.977 2.678-3.388-3.487c-3.931-4.048-8.05-4.597-11.159-1.488-3.619 3.619-2.596 6.625 4.859 14.275 10.4 10.67 9.193 11.151 33.831-13.463 11.183-11.172 20.599-21.154 20.926-22.182.92-2.892-2.753-7.075-6.54-7.449-2.956-.292-4.457.887-17.901 14.06m55.748 74.682C185.928 179.918 185 181.848 185 184c0 4.302 4.698 9 9 9s9-4.698 9-9c0-2.152-.928-4.082-2.923-6.077S196.152 175 194 175s-4.082.928-6.077 2.923m6.711 5.1c-1.645 1.955-3.081 2.826-3.874 2.35-.927-.557-.909-.324.068.881 1.198 1.478 1.626 1.298 4.383-1.841 1.68-1.914 2.826-3.709 2.547-3.989-.28-.28-1.686.89-3.124 2.599"/></svg>